<mxfile host="www.draw.io" modified="2019-12-01T21:50:07.043Z" agent="Mozilla/5.0 (X11; Linux x86_64) AppleWebKit/537.36 (KHTML, like Gecko) Ubuntu Chromium/78.0.3904.108 Chrome/78.0.3904.108 Safari/537.36" etag="l_zQJk7Sm0b8ozz9eOc0" version="12.3.3" type="github" pages="1">
  <diagram id="WTLqD5dWwqgmzsoK_gdg" name="Page-1">
    <mxGraphModel dx="1355" dy="898" grid="1" gridSize="10" guides="1" tooltips="1" connect="1" arrows="1" fold="1" page="1" pageScale="1" pageWidth="850" pageHeight="1100" math="0" shadow="0">
      <root>
        <mxCell id="0"/>
        <mxCell id="1" parent="0"/>
        <mxCell id="ihP4ZnYenOO0dcd0Adwc-1" value="Input File/Stream&lt;br&gt;&lt;br&gt;Example:" style="rounded=0;whiteSpace=wrap;html=1;align=left;" parent="1" vertex="1">
          <mxGeometry x="150" y="40" width="440" height="290" as="geometry"/>
        </mxCell>
      </root>
    </mxGraphModel>
  </diagram>
</mxfile>
